<svg id="icon" viewBox="0 0 28 28" fill="none" xmlns="http://www.w3.org/2000/svg">
<path d="M13.9941 9.79357C14.6892 9.79357 15.2579 9.22487 15.2579 8.52404C15.2579 7.82896 14.6892 7.26025 13.9941 7.26025C13.2933 7.26025 12.7246 7.82896 12.7246 8.52404C12.7246 9.22487 13.2933 9.79357 13.9941 9.79357ZM13.9941 15.1762L15.3728 17.3418L16.4125 20.2141C16.5389 20.5472 16.8663 20.6506 17.1363 20.553C17.4236 20.4553 17.5729 20.1222 17.4695 19.8349L16.4125 16.9282L15.3613 14.0445V11.4308C15.3613 11.3159 15.4187 11.2182 15.5221 11.1608L19.0837 9.26508C19.3537 9.12147 19.4629 8.78829 19.3078 8.50681C19.1641 8.23682 18.831 8.13342 18.561 8.27703L15.12 10.098C14.7409 10.2991 14.3675 10.391 13.9941 10.391C13.6207 10.391 13.2473 10.2991 12.8682 10.098L9.43298 8.27703C9.15724 8.13342 8.82406 8.23682 8.68045 8.50681C8.5311 8.78829 8.64024 9.12147 8.91023 9.26508L12.4661 11.1608C12.5752 11.2182 12.6327 11.3159 12.6327 11.4308V14.0445L11.5814 16.9282L10.5244 19.8349C10.4153 20.1222 10.5646 20.4553 10.8576 20.553C11.1276 20.6506 11.455 20.5472 11.5757 20.2141L12.6154 17.3418L13.9941 15.1762Z" fill="currentColor"/>
<path fill-rule="evenodd" clip-rule="evenodd" d="M24 14C24 19.5228 19.5228 24 14 24C8.47715 24 4 19.5228 4 14C4 8.47715 8.47715 4 14 4C19.5228 4 24 8.47715 24 14ZM14 22.8235C18.8731 22.8235 22.8235 18.8731 22.8235 14C22.8235 9.1269 18.8731 5.17647 14 5.17647C9.1269 5.17647 5.17647 9.1269 5.17647 14C5.17647 18.8731 9.1269 22.8235 14 22.8235Z" fill="currentColor"/>
</svg>
