<svg id="icon" viewBox="0 0 28 28" fill="none" xmlns="http://www.w3.org/2000/svg">
<path d="M12.972 6.97066C11.8819 7.3579 10.8328 7.8748 9.78363 8.35928C8.86584 8.78747 7.85936 9.13547 7.01834 9.70184C6.46903 10.0806 6.30014 10.8602 6.70273 11.4061C7.03709 11.8991 7.64782 12.1038 8.16642 12.3443C9.33497 12.8783 10.5069 13.3986 11.6704 13.9428C12.4261 14.2635 13.2842 14.6064 14.115 14.603C15.3228 14.5023 16.551 13.8268 17.6411 13.332C18.5094 12.9516 19.3675 12.5439 20.2341 12.1618C20.6742 11.9537 21.1536 11.7251 21.3873 11.2713C21.6483 10.739 21.488 10.0891 21.0137 9.73766C20.4798 9.33336 19.8213 9.07065 19.214 8.79429C17.8765 8.22451 16.5544 7.54897 15.1965 7.02354C14.4596 6.74377 13.7192 6.70624 12.972 6.97066Z" fill="currentColor"/>
<path d="M20.4459 13.1956C18.8492 13.8847 17.3446 14.6797 15.7223 15.328C14.5008 15.8039 13.1258 15.7323 11.9368 15.1915C10.2804 14.4682 8.65121 13.68 7.01011 12.9226C6.76446 13.2894 6.43864 13.5811 6.4864 14.057C6.50005 14.6422 6.93506 15.0397 7.42124 15.2904C8.4465 15.8159 9.52635 16.2406 10.567 16.737C11.4046 17.1192 12.2456 17.5235 13.1224 17.8032C13.7809 18.0131 14.4582 17.9653 15.1013 17.7282C16.4592 17.2403 17.783 16.5477 19.1136 15.9813C19.7823 15.6674 20.5432 15.3945 21.1198 14.9237C21.6589 14.4545 21.6213 13.634 21.1761 13.112C20.9117 12.9891 20.6967 13.1051 20.4459 13.1956Z" fill="currentColor"/>
<path d="M20.7768 16.4026C19.8693 16.7063 19.0163 17.1908 18.1395 17.5746C16.7048 18.1819 15.5738 18.9564 13.9446 18.9427C12.399 18.9223 11.268 18.1768 9.89817 17.5951C8.93773 17.1805 7.96876 16.5817 6.94521 16.3531C6.52555 16.7353 6.35497 17.2624 6.59038 17.7998C6.88892 18.3798 7.61735 18.6903 8.1786 18.9564C9.64569 19.5876 11.0787 20.2972 12.5509 20.9165C13.4533 21.2884 14.4683 21.3123 15.3759 20.9455C16.7679 20.3774 18.1156 19.6916 19.4991 19.1014C20.0552 18.8506 20.6745 18.5913 21.1368 18.1853C21.5684 17.8151 21.6161 17.1873 21.3722 16.696C21.2357 16.476 21.0583 16.2815 20.7768 16.4026Z" fill="currentColor"/>
</svg>
