<svg id="icon" viewBox="0 0 28 28" fill="none" xmlns="http://www.w3.org/2000/svg">
<path d="M7.65269 18H18.0852C19.2961 18 20.2475 17.8713 20.9328 17.2087C21.6114 16.5461 21.7379 15.639 21.7379 14.4682V12.5318C21.7379 11.3545 21.6114 10.4475 20.9328 9.79128C20.2409 9.12866 19.2961 9 18.0852 9H7.63273C6.44178 9 5.49035 9.12866 4.81171 9.79128C4.12641 10.4539 4 11.361 4 12.5125V14.4682C4 15.639 4.12641 16.5525 4.80506 17.2087C5.49701 17.8713 6.44178 18 7.65269 18ZM7.4664 16.7391C6.7811 16.7391 6.13573 16.6426 5.76314 16.2888C5.39055 15.9285 5.30406 15.3174 5.30406 14.6483V12.3645C5.30406 11.6891 5.39055 11.0715 5.75649 10.7112C6.12908 10.351 6.7811 10.2609 7.47971 10.2609H18.2715C18.9634 10.2609 19.6088 10.351 19.9747 10.7112C20.3473 11.0715 20.4338 11.6826 20.4338 12.3517V14.6483C20.4338 15.3174 20.3473 15.9285 19.9747 16.2888C19.6088 16.649 18.9634 16.7391 18.2715 16.7391H7.4664ZM7.20692 15.9285H15.171C15.5835 15.9285 15.8297 15.8706 16.0027 15.7034C16.169 15.5361 16.2355 15.2981 16.2355 14.9056V12.0944C16.2355 11.6955 16.169 11.4575 16.0027 11.2966C15.8297 11.1294 15.5835 11.0715 15.171 11.0715H7.22023C6.79441 11.0715 6.54824 11.1294 6.37525 11.2902C6.20892 11.4575 6.14238 11.7019 6.14238 12.1072V14.9056C6.14238 15.3045 6.20892 15.5361 6.37525 15.7034C6.54824 15.8706 6.79441 15.9285 7.20692 15.9285ZM22.7092 15.2402C23.2615 15.208 24 14.5261 24 13.4968C24 12.4739 23.2615 11.7856 22.7092 11.7534V15.2402Z" fill="currentColor"/>
</svg>
