<svg id="icon" viewBox="0 0 28 28" fill="none" xmlns="http://www.w3.org/2000/svg">
<path fill-rule="evenodd" clip-rule="evenodd" d="M13.4992 5.06351C13.7356 4.95281 14.0146 4.98883 14.2151 5.15591L19.058 9.19162C19.2044 9.31362 19.2922 9.49202 19.2995 9.68246C19.3068 9.8729 19.233 10.0575 19.0964 10.1904L14.9373 14.2371L19.0674 17.8091C19.2087 17.9313 19.2928 18.1068 19.2996 18.2935C19.3063 18.4802 19.2351 18.6613 19.103 18.7935L14.2601 23.6363C14.0678 23.8287 13.7785 23.8862 13.5271 23.7821C13.2758 23.678 13.1119 23.4327 13.1119 23.1607V16.0132L9.14168 19.8761C8.87544 20.1352 8.4496 20.1293 8.19055 19.8631C7.93149 19.5968 7.93733 19.171 8.20358 18.912L12.9483 14.2955L8.23263 10.2171C7.95166 9.97408 7.92088 9.54931 8.16389 9.26834C8.40689 8.98737 8.83165 8.95659 9.11262 9.19959L13.1119 12.6584V5.67263C13.1119 5.41164 13.2629 5.17421 13.4992 5.06351ZM14.4571 15.6004L17.6404 18.3536L14.4571 21.5369V15.6004ZM14.4571 12.8274V7.10869L17.6231 9.747L14.4571 12.8274Z" fill="currentColor"/>
</svg>
