<svg viewBox="0 0 25 22" fill="none" xmlns="http://www.w3.org/2000/svg" id="icon">
<path d="M2.74561 6.88965V4.46582C2.74561 3.40332 3.01676 2.60645 3.55908 2.0752C4.1014 1.53841 4.90658 1.27002 5.97461 1.27002H8.34033V2.73926H6.00781C5.42676 2.73926 4.98128 2.89144 4.67139 3.1958C4.36702 3.50016 4.21484 3.9484 4.21484 4.54053V6.88965H2.74561ZM9.66016 2.73926V1.27002H15.3379V2.73926H9.66016ZM20.7915 6.88965V4.54053C20.7915 3.9484 20.6338 3.50016 20.3184 3.1958C20.0085 2.89144 19.5685 2.73926 18.9985 2.73926H16.666V1.27002H19.0234C20.097 1.27002 20.9049 1.53841 21.4473 2.0752C21.9896 2.61198 22.2607 3.40885 22.2607 4.46582V6.88965H20.7915ZM20.7915 13.8291V8.21777H22.2607V13.8291H20.7915ZM16.666 20.7769V19.3076H18.9985C19.5685 19.3076 20.0085 19.1554 20.3184 18.8511C20.6338 18.5467 20.7915 18.0985 20.7915 17.5063V15.1572H22.2607V17.5811C22.2607 18.638 21.9896 19.4349 21.4473 19.9717C20.9049 20.5085 20.097 20.7769 19.0234 20.7769H16.666ZM9.66016 20.7769V19.3076H15.3379V20.7769H9.66016ZM5.97461 20.7769C4.90658 20.7769 4.1014 20.5085 3.55908 19.9717C3.01676 19.4404 2.74561 18.6436 2.74561 17.5811V15.1572H4.21484V17.5063C4.21484 18.0985 4.36702 18.5467 4.67139 18.8511C4.98128 19.1554 5.42676 19.3076 6.00781 19.3076H8.34033V20.7769H5.97461ZM2.74561 13.8291V8.21777H4.21484V13.8291H2.74561Z" fill="currentColor"/>
</svg>
