<svg id="icon" viewBox="0 0 28 28" fill="none" xmlns="http://www.w3.org/2000/svg">
<path d="M13.5057 5.91623C14.4478 5.63414 15.4857 5.85836 16.1475 6.60517C16.7388 7.23263 16.8256 8.09155 16.6556 8.90526C16.4585 9.75694 15.6882 10.4423 14.8637 10.6701C13.3809 11.0444 11.7896 9.7262 11.8439 8.2127C11.8204 7.20189 12.5437 6.21459 13.5057 5.91623Z" fill="currentColor"/>
<path fill-rule="evenodd" clip-rule="evenodd" d="M13.7021 12.0907C13.7029 11.7931 13.7038 11.4956 13.7045 11.1981C12.974 11.3138 12.2579 11.4549 11.5871 11.7785C11.0559 12.0375 10.5183 12.281 9.98069 12.5245C9.49343 12.7452 9.00622 12.9659 8.52391 13.198C8.22294 13.3424 7.90822 13.4741 7.59186 13.6064C6.96923 13.8669 6.34022 14.1301 5.79707 14.4981C5.39022 14.7549 5.2112 15.2522 5.43723 15.6916C5.61126 16.022 6.0295 16.2212 6.38875 16.3924C6.46996 16.431 6.54815 16.4683 6.61983 16.5053C7.26315 16.7965 7.90698 17.0862 8.55084 17.3759C9.60998 17.8525 10.6692 18.329 11.7263 18.8126C13.2308 19.5269 14.9956 19.5956 16.5362 18.9519C17.5579 18.5215 18.5705 18.0658 19.5759 17.5975C19.8839 17.4559 20.1955 17.3191 20.5077 17.182C21.2401 16.8603 21.975 16.5376 22.6698 16.1509C23.1526 15.8778 23.4456 15.3263 23.1255 14.8092C22.8315 14.4309 22.3347 14.1883 21.9057 13.9788C21.8836 13.968 21.8616 13.9573 21.8398 13.9466C20.2088 13.237 18.5897 12.4946 16.9727 11.7532L16.8545 11.699C16.2325 11.4296 15.5833 11.3102 14.9197 11.1963C14.8955 11.7879 14.9064 12.3846 14.9172 12.9816C14.9332 13.8572 14.9492 14.7335 14.8546 15.5958C14.5569 15.8619 14.2786 15.7963 13.9612 15.7215C13.8775 15.7017 13.7911 15.6814 13.7009 15.6663C13.6951 14.4741 13.6986 13.282 13.7021 12.0907ZM9.90022 15.0371C9.57835 14.5561 8.72125 14.5344 8.24387 14.7532C8.01604 14.8689 7.86595 15.0208 7.77734 15.2631C7.79723 15.8833 8.6435 15.9466 9.1046 15.9159C9.56209 15.8996 10.1552 15.5741 9.90022 15.0371Z" fill="currentColor"/>
<path d="M5.37948 17.1003C5.97801 17.0858 6.42645 17.3588 6.95085 17.5975C8.48605 18.2937 10.0158 19.0007 11.5528 19.6915C12.8439 20.2575 14.2381 20.3063 15.616 20.1056C16.8998 19.9193 18.0101 19.2159 19.2505 18.7042C20.5742 18.1382 21.8598 17.386 23.2504 17.0062C23.2558 17.442 23.2883 17.9031 23.207 18.3335C23.0858 18.8181 22.6012 19.0875 22.1871 19.2937C20.6103 20.0043 19.0263 20.7041 17.4586 21.4346C16.1132 22.0241 14.7643 22.4635 13.2797 22.1579C11.5456 21.789 9.87659 20.7963 8.24556 20.0947C7.42823 19.6842 6.42646 19.4293 5.72305 18.8398C5.20047 18.4239 5.32523 17.6843 5.37948 17.1003Z" fill="currentColor"/>
</svg>
