<svg id="icon" viewBox="0 0 28 28" fill="none" xmlns="http://www.w3.org/2000/svg">
<path d="M8.09921 15.877H8.60214C8.54702 15.461 8.51257 15.012 8.58147 14.6224H8.18188C6.5422 14.6224 5.37788 13.5198 5.37788 11.9352C5.37788 10.3637 6.5422 9.2479 8.18188 9.2479H14.2652C15.9049 9.2479 17.0692 10.3637 17.0692 11.9352C17.0692 13.5198 15.9049 14.6224 14.2652 14.6224H12.1571C11.8264 14.8337 11.8539 15.6261 12.2811 15.877H14.3479C16.7385 15.877 18.4471 14.2593 18.4471 11.9352C18.4471 9.61765 16.7385 8 14.3479 8H8.09921C5.70858 8 4 9.61765 4 11.9352C4 14.2593 5.70858 15.877 8.09921 15.877ZM13.6521 19H19.8939C22.2914 19 24 17.3824 24 15.0648C24 12.7407 22.2914 11.123 19.8939 11.123H19.3979C19.453 11.539 19.4874 11.988 19.4185 12.3776H19.8181C21.4578 12.3776 22.6221 13.4802 22.6221 15.0648C22.6221 16.6363 21.4578 17.7521 19.8181 17.7521H13.7348C12.0951 17.7521 10.9308 16.6363 10.9308 15.0648C10.9308 13.4802 12.0951 12.3776 13.7348 12.3776H15.8429C16.1736 12.1663 16.1461 11.3739 15.7189 11.123H13.6521C11.2546 11.123 9.55288 12.7407 9.55288 15.0648C9.55288 17.3824 11.2546 19 13.6521 19Z" fill="currentColor"/>
</svg>
