<svg id="icon" viewBox="0 0 28 28" fill="none" xmlns="http://www.w3.org/2000/svg">
<path fill-rule="evenodd" clip-rule="evenodd" d="M20.3295 8.37934H9.23601C7.76002 8.37934 6.98549 9.15169 6.98549 10.6518V18.844H6.48679C5.03646 18.844 4.27539 18.0973 4.27539 16.6613V8.40449C4.27539 6.95416 5.03646 6.20746 6.48679 6.20746H18.1182C19.5744 6.20746 20.3209 6.94553 20.3295 8.37934Z" fill="currentColor"/>
<path d="M9.88181 21.7926H21.5132C22.9779 21.7926 23.7246 21.0459 23.7246 19.6099V11.3531C23.7246 9.90277 22.9779 9.15607 21.5132 9.15607H9.88181C8.43147 9.15607 7.67041 9.90277 7.67041 11.3531V19.6099C7.67041 21.0459 8.43147 21.7926 9.88181 21.7926ZM12.9404 15.6179C12.007 15.6179 11.246 14.8569 11.246 13.9235C11.246 13.0045 12.007 12.2434 12.9404 12.2434C13.8594 12.2434 14.6062 13.0045 14.6062 13.9235C14.6062 14.8569 13.8594 15.6179 12.9404 15.6179ZM10.011 20.3279C9.46537 20.3279 9.1351 19.9977 9.1351 19.4663V18.7771L10.9157 17.2693C11.2173 17.0108 11.5188 16.8672 11.8347 16.8672C12.1506 16.8672 12.4953 17.0252 12.7968 17.2837L14.0892 18.4468L17.3058 15.5892C17.6217 15.302 17.9807 15.1584 18.3684 15.1584C18.7417 15.1584 19.1295 15.302 19.431 15.6036L22.2599 18.174V19.4663C22.2599 19.9977 21.9296 20.3279 21.3983 20.3279H10.011Z" fill="currentColor"/>
</svg>
