<svg id="icon" viewBox="0 0 28 28" fill="none" xmlns="http://www.w3.org/2000/svg">
<path d="M8.375 4.72461H19.7744C19.7129 3.93359 19.2471 3.51172 18.3945 3.51172H9.74609C8.90234 3.51172 8.42773 3.93359 8.375 4.72461ZM6.50293 7.28223H21.5059C21.3828 6.44727 20.9521 5.96387 20.0117 5.96387H7.98828C7.04785 5.96387 6.62598 6.44727 6.50293 7.28223ZM7.36426 23.832H20.6182C22.5166 23.832 23.5186 22.8477 23.5186 20.9668V11.5977C23.5186 9.7168 22.5166 8.73242 20.6182 8.73242H7.36426C5.45703 8.73242 4.47266 9.70801 4.47266 11.5977V20.9668C4.47266 22.8477 5.45703 23.832 7.36426 23.832Z" fill="currentColor"/>
</svg>
