<svg id="icon" viewBox="0 0 28 28" fill="none" xmlns="http://www.w3.org/2000/svg">
<path fill-rule="evenodd" clip-rule="evenodd" d="M22.682 6.0802C22.5794 5.49889 22.165 5.31383 21.6179 5.27159C19.2565 5.23337 17.0821 5.95347 15.0143 7.04368C13.7029 7.77183 12.5141 8.65284 11.5466 9.80742C11.4602 9.90687 11.3756 10.0106 11.2905 10.115C11.0743 10.3802 10.8549 10.6493 10.5952 10.8614C10.2795 10.9167 9.97117 10.9321 9.6659 10.9472C9.10545 10.975 8.55548 11.0023 7.99034 11.2758C6.7372 11.8732 6.00906 13.2168 5.55447 14.468C5.27086 15.186 5.24068 15.9263 5.28694 16.6886C6.09844 16.8024 6.81687 16.6525 7.56207 16.497C7.92329 16.4216 8.2908 16.345 8.67826 16.2964C8.83917 17.4711 9.58743 18.2213 10.4805 18.9153C10.7408 19.0809 11.0664 19.1618 11.3789 19.2393C11.4913 19.2672 11.6021 19.2947 11.7075 19.3256C11.663 19.7526 11.5778 20.1532 11.4941 20.5468C11.3432 21.2564 11.1971 21.9433 11.3032 22.7209C11.9509 22.7411 12.5785 22.7451 13.2 22.5319C14.606 22.0511 16.004 21.3874 16.72 20.0055C17.0014 19.458 17.0209 18.9177 17.0406 18.3695C17.0521 18.0516 17.0636 17.731 17.1264 17.4047C17.3889 17.1141 17.6933 16.8647 17.9983 16.6148C18.2843 16.3804 18.5709 16.1456 18.824 15.876C20.5096 14.1441 21.6883 11.8732 22.34 9.55599C22.5975 8.44566 22.8369 7.21868 22.682 6.0802ZM18.2283 9.76511C17.7255 9.28437 16.8787 9.19386 16.2632 9.49356C15.539 9.83953 15.1508 10.7829 15.4686 11.5292C15.8045 12.3639 16.8042 12.899 17.6631 12.5067C18.7433 12.1145 18.9806 10.5616 18.2283 9.76511Z" fill="currentColor"/>
<path d="M8.73054 18.1228C8.27797 18.7644 7.79321 19.2431 7.86562 20.096C8.27797 20.2026 8.73859 20.1724 9.16502 20.1684C9.37421 19.9331 9.5834 19.6997 9.7946 19.4664C9.98167 19.5489 10.1687 19.6314 10.3558 19.7138C10.2532 20.4802 10.1989 21.1761 9.41243 21.5442C8.63802 21.7816 7.7208 21.7876 6.92225 21.677C6.47571 21.6488 6.44554 21.2284 6.38922 20.8744C6.35502 20.2167 6.37715 19.5247 6.55818 18.8891C6.85788 18.0121 7.92999 17.5535 8.73054 18.1228Z" fill="currentColor"/>
</svg>
