<svg id="icon" viewBox="0 0 28 28" fill="none" xmlns="http://www.w3.org/2000/svg">
<path d="M22.666 22.3116C23.0527 22.5665 23.5713 22.4522 23.8525 22.0304C25.3994 19.7101 26.3311 16.8272 26.3311 13.6632C26.3311 10.4903 25.3818 7.6163 23.8525 5.2872C23.5713 4.85654 23.0527 4.75107 22.666 5.00595C22.2441 5.27841 22.1826 5.79697 22.4727 6.26279C23.8174 8.31064 24.6523 10.8507 24.6523 13.6632C24.6523 16.4581 23.8174 19.0157 22.4727 21.0548C22.1826 21.5206 22.2441 22.0392 22.666 22.3116ZM11.293 21.5382C11.9521 21.5382 12.4355 21.046 12.4355 20.3956V6.9747C12.4355 6.31552 11.9521 5.78818 11.2754 5.78818C10.8271 5.78818 10.502 5.97275 10.0273 6.43857L6.35352 9.87509C6.30078 9.92782 6.23047 9.95419 6.15137 9.95419H3.66406C2.36328 9.95419 1.66016 10.6749 1.66016 12.0372V15.3067C1.66016 16.669 2.36328 17.3897 3.66406 17.3897H6.15137C6.23047 17.3897 6.29199 17.4161 6.35352 17.4688L10.0273 20.9317C10.4668 21.3536 10.8359 21.5382 11.293 21.5382ZM19.1064 19.9298C19.5107 20.1759 20.0029 20.088 20.2842 19.6749C21.4268 18.0577 22.0947 15.8868 22.0947 13.6544C22.0947 11.422 21.4355 9.24228 20.2842 7.63388C20.0029 7.22079 19.5107 7.12411 19.1064 7.379C18.6846 7.64267 18.623 8.17001 18.9395 8.63583C19.8711 10.0069 20.4072 11.7911 20.4072 13.6544C20.4072 15.5089 19.8623 17.2931 18.9395 18.6729C18.6318 19.1388 18.6846 19.6573 19.1064 19.9298ZM15.5645 17.5743C15.9424 17.8204 16.4346 17.7325 16.707 17.3458C17.4189 16.3966 17.8408 15.0518 17.8408 13.6544C17.8408 12.2569 17.4189 10.921 16.707 9.96298C16.4346 9.57626 15.9424 9.48837 15.5645 9.74325C15.1338 10.0245 15.0547 10.5431 15.3975 11.0528C15.8809 11.7472 16.1533 12.6788 16.1533 13.6544C16.1533 14.63 15.8809 15.5528 15.3975 16.2559C15.0547 16.7657 15.1338 17.2843 15.5645 17.5743Z" fill="currentColor"/>
</svg>
