<svg id="icon" viewBox="0 0 28 28" fill="none" xmlns="http://www.w3.org/2000/svg">
<path fill-rule="evenodd" clip-rule="evenodd" d="M18.0027 6.66448H9.00808C8.59877 6.66448 8.26696 6.99629 8.26696 7.40561V20.1121C8.26696 20.5214 8.59877 20.8532 9.00808 20.8532H18.0027C18.412 20.8532 18.7438 20.5214 18.7438 20.1121V7.40561C18.7438 6.99629 18.412 6.66448 18.0027 6.66448ZM9.00808 5.034C7.69828 5.034 6.63647 6.0958 6.63647 7.40561V20.1121C6.63647 21.4219 7.69828 22.4837 9.00808 22.4837H18.0027C19.3125 22.4837 20.3743 21.4219 20.3743 20.1121V7.40561C20.3743 6.0958 19.3125 5.034 18.0027 5.034H9.00808Z" fill="currentColor"/>
<rect x="9.57275" y="8.03235" width="7.65468" height="1.10668" rx="0.553338" fill="currentColor"/>
<rect x="9.57275" y="10.2557" width="4.96635" height="1.10668" rx="0.553338" fill="currentColor"/>
<path d="M9.57275 13.3838C9.57275 12.9212 9.94773 12.5463 10.4103 12.5463H16.6004C17.063 12.5463 17.438 12.9212 17.438 13.3838V18.6476C17.438 19.1101 17.063 19.4851 16.6004 19.4851H10.4103C9.94773 19.4851 9.57275 19.1101 9.57275 18.6476V13.3838Z" fill="currentColor"/>
</svg>
