<svg id="icon" viewBox="0 0 28 28" fill="none" xmlns="http://www.w3.org/2000/svg">
<path fill-rule="evenodd" clip-rule="evenodd" d="M15.6965 21.2321V6.76786C15.6965 5.83095 14.9369 5.07143 14 5.07143C13.0631 5.07143 12.3036 5.83095 12.3036 6.76786V21.2321C12.3036 22.1691 13.0631 22.9286 14 22.9286C14.9369 22.9286 15.6965 22.1691 15.6965 21.2321ZM14 4C12.4714 4 11.2322 5.23921 11.2322 6.76786V21.2321C11.2322 22.7608 12.4714 24 14 24C15.5287 24 16.7679 22.7608 16.7679 21.2321V6.76786C16.7679 5.23921 15.5287 4 14 4Z" fill="currentColor"/>
<path fill-rule="evenodd" clip-rule="evenodd" d="M10.0855 20.3134L20.3133 10.0856C20.9758 9.42308 20.9758 8.34896 20.3133 7.68646C19.6508 7.02397 18.5767 7.02397 17.9142 7.68646L7.68642 17.9143C7.02392 18.5768 7.02392 19.6509 7.68642 20.3134C8.34892 20.9759 9.42303 20.9759 10.0855 20.3134ZM21.0709 6.92885C19.99 5.84793 18.2375 5.84793 17.1566 6.92885L6.9288 17.1566C5.84789 18.2376 5.84789 19.9901 6.9288 21.071C8.00972 22.1519 9.76223 22.1519 10.8431 21.071L21.0709 10.8432C22.1519 9.76228 22.1519 8.00977 21.0709 6.92885Z" fill="currentColor"/>
<path fill-rule="evenodd" clip-rule="evenodd" d="M6.76786 15.6962L21.2321 15.6962C22.1691 15.6962 22.9286 14.9367 22.9286 13.9998C22.9286 13.0629 22.1691 12.3034 21.2321 12.3034L6.76786 12.3034C5.83095 12.3034 5.07143 13.0629 5.07143 13.9998C5.07143 14.9367 5.83095 15.6962 6.76786 15.6962ZM24 13.9998C24 12.4711 22.7608 11.2319 21.2321 11.2319L6.76786 11.2319C5.23921 11.2319 4 12.4711 4 13.9998C4 15.5284 5.23921 16.7676 6.76786 16.7676L21.2321 16.7676C22.7608 16.7676 24 15.5284 24 13.9998Z" fill="currentColor"/>
<path fill-rule="evenodd" clip-rule="evenodd" d="M7.68663 10.085L17.9144 20.3128C18.5769 20.9753 19.651 20.9753 20.3135 20.3128C20.976 19.6503 20.976 18.5762 20.3135 17.9137L10.0857 7.68593C9.42324 7.02343 8.34913 7.02343 7.68663 7.68593C7.02413 8.34843 7.02413 9.42255 7.68663 10.085ZM21.0711 21.0705C22.1521 19.9895 22.1521 18.237 21.0711 17.1561L10.8434 6.92832C9.76244 5.8474 8.00993 5.8474 6.92901 6.92832C5.8481 8.00923 5.8481 9.76174 6.92901 10.8427L17.1568 21.0705C18.2377 22.1514 19.9902 22.1514 21.0711 21.0705Z" fill="currentColor"/>
</svg>
